<svg width="16" height="20" viewBox="0 0 16 20" fill="none" xmlns="http://www.w3.org/2000/svg">
<path d="M10.8877 0.115509C10.796 0.018921 10.6703 -0.0390625 10.54 -0.0390625H2.73801C1.29834 -0.0390625 0.109985 1.14456 0.109985 2.58408V17.3377C0.109985 18.7773 1.29834 19.961 2.73801 19.961H13.3273C14.767 19.961 15.9554 18.7773 15.9554 17.3377V5.62272C15.9554 5.49714 15.8974 5.37644 15.8153 5.28459L10.8877 0.115509ZM11.0278 1.66626L14.3274 5.13001H12.1825C11.5448 5.13001 11.0278 4.61793 11.0278 3.98026V1.66626ZM13.3273 18.9948H2.73801C1.83469 18.9948 1.07617 18.246 1.07617 17.3377V2.58408C1.07617 1.68076 1.82981 0.927126 2.73801 0.927126H10.0616V3.98026C10.0616 5.15412 11.0086 6.0962 12.1825 6.0962H14.9892V17.3377C14.9892 18.246 14.2355 18.9948 13.3273 18.9948Z" fill="#696969"/>
<path d="M12.0083 15.6615H4.05658C3.79092 15.6615 3.57349 15.8788 3.57349 16.1446C3.57349 16.4103 3.79092 16.6277 4.05658 16.6277H12.0131C12.2788 16.6277 12.4962 16.4103 12.4962 16.1446C12.4962 15.8788 12.2788 15.6615 12.0083 15.6615Z" fill="#696969"/>
<path d="M7.6798 13.9272C7.77166 14.0238 7.89724 14.0817 8.03243 14.0817C8.16778 14.0817 8.29336 14.0238 8.38506 13.9272L11.216 10.8885C11.3996 10.6952 11.3851 10.3861 11.1919 10.2074C10.9986 10.0238 10.6894 10.0382 10.5108 10.2315L8.51553 12.3715V7.09625C8.51553 6.83044 8.29809 6.61316 8.03243 6.61316C7.76678 6.61316 7.54934 6.83044 7.54934 7.09625V12.3715L5.55898 10.2315C5.37541 10.0383 5.071 10.0238 4.87782 10.2074C4.68465 10.3909 4.67015 10.6954 4.85371 10.8885L7.6798 13.9272Z" fill="#696969"/>
</svg>
